<svg id="Group_2" data-name="Group 2" xmlns="http://www.w3.org/2000/svg" width="39.417" height="35.128" viewBox="0 0 39.417 35.128">
  <path id="Path_2" data-name="Path 2" d="M39.34,20.114A12.114,12.114,0,0,0,33.8,21.452c-.473.275-.224.7.276.471a10.841,10.841,0,1,1-5.547,6.2c.153-.465-.374-.631-.551-.184A12.168,12.168,0,1,0,39.34,20.114M14.5,30.336c1.661-8.886,12.025-8.866,17.571-4.064.68.714.94,2.308,2.014,3.29,1.231,1.117,2.9,1.19,3.523.445.693-.827.366-2.346-1.357-3.422-1.081-.678-3.131-.666-3.646-1.084-3.545-2.869-10.74-6.741-16.586-2.269a8.28,8.28,0,0,0-2.1,2.178C6.228,36.622,24.744,50.84,33.953,55.242c-.91-.548-21.507-13.927-19.452-24.906" transform="translate(-12.092 -20.114)" fill="#fff"/>
</svg>
