<svg xmlns="http://www.w3.org/2000/svg" width="113.669" height="26.263" viewBox="0 0 113.669 26.263">
  <g id="Group_643" data-name="Group 643" transform="translate(-45.834 -7.583)">
    <g id="Group_1" data-name="Group 1" transform="translate(46.816 7.583)">
      <path id="Path_1" data-name="Path 1" d="M51.692,32.062c0,1.5,0,2.736.078,3.391.046.455.14.8.61.862a6.961,6.961,0,0,0,.7.063c.093,0,.124.046.124.091,0,.08-.078.125-.249.125-.86,0-1.843-.046-1.923-.046s-1.063.046-1.531.046c-.172,0-.25-.031-.25-.125,0-.046.033-.091.124-.091a2.436,2.436,0,0,0,.47-.063c.315-.063.392-.406.455-.862.076-.655.076-1.891.076-3.391V30.423a.091.091,0,0,0-.094-.1H43.659a.085.085,0,0,0-.1.1v1.639c0,1.5,0,2.736.078,3.391.046.455.141.8.611.862a6.974,6.974,0,0,0,.7.063c.094,0,.127.046.127.091,0,.08-.08.125-.252.125-.86,0-1.843-.046-1.921-.046s-1.063.046-1.533.046c-.172,0-.249-.031-.249-.125,0-.046.031-.091.125-.091a2.42,2.42,0,0,0,.467-.063c.315-.063.392-.406.455-.862.078-.655.078-1.891.078-3.391V29.311c0-2.438,0-2.876-.031-3.373-.033-.532-.156-.784-.673-.892a2.8,2.8,0,0,0-.53-.046c-.063,0-.127-.034-.127-.1,0-.094.078-.125.25-.125.7,0,1.689.047,1.767.047s1.062-.047,1.531-.047c.172,0,.25.031.25.125,0,.062-.063.1-.127.1a2.163,2.163,0,0,0-.39.046c-.423.08-.546.343-.577.892-.033.5-.033.935-.033,3.373v.328a.085.085,0,0,0,.1.1h6.624a.084.084,0,0,0,.094-.1v-.328c0-2.438,0-2.876-.031-3.373-.031-.532-.158-.784-.671-.892a2.8,2.8,0,0,0-.53-.046c-.063,0-.127-.034-.127-.1,0-.094.078-.125.249-.125.7,0,1.689.047,1.767.047s1.063-.047,1.531-.047c.174,0,.25.031.25.125,0,.062-.062.1-.125.1a2.163,2.163,0,0,0-.39.046c-.423.08-.548.343-.577.892-.033.5-.033.935-.033,3.373ZM144.32,34.7c.028,1.143.167,1.5.543,1.617a3,3,0,0,0,.694.081c.072,0,.115.028.115.085,0,.083-.086.111-.252.111-.795,0-1.353-.041-1.476-.041s-.71.041-1.338.041c-.138,0-.221-.013-.221-.111,0-.057.042-.085.111-.085a1.969,1.969,0,0,0,.571-.081c.348-.1.418-.5.418-1.769l.016-7.978c0-.543.039-.694.151-.694s.346.3.488.444c.208.237,2.282,2.479,4.427,4.776,1.38,1.474,2.9,3.173,3.342,3.632l-.154-7.071c-.013-.905-.111-1.211-.543-1.323a3.892,3.892,0,0,0-.683-.07c-.1,0-.109-.039-.109-.1,0-.081.109-.1.275-.1.629,0,1.3.041,1.45.041s.613-.041,1.183-.041c.151,0,.25.015.25.1,0,.059-.054.1-.153.1a1.218,1.218,0,0,0-.335.042c-.458.1-.515.4-.515,1.239l-.028,8.161c0,.917-.028.987-.124.987-.112,0-.28-.153-1.018-.891-.153-.14-2.157-2.186-3.632-3.773-1.617-1.739-3.188-3.5-3.635-4Zm-8.8-8.824c3.133,0,5.472,1.977,5.472,5.22a5.466,5.466,0,0,1-5.556,5.694,5.221,5.221,0,0,1-5.4-5.473,5.39,5.39,0,0,1,5.486-5.441m.293,10.383c1.252,0,3.841-.723,3.841-4.774,0-3.341-2.032-5.135-4.231-5.135-2.328,0-4.066,1.53-4.066,4.578,0,3.245,1.949,5.332,4.456,5.332m-10.43-3.7c0,1.336,0,2.435.072,3.02.039.4.122.71.541.766a5.707,5.707,0,0,0,.627.055c.085,0,.111.044.111.085,0,.07-.07.111-.224.111-.764,0-1.64-.041-1.71-.041s-.946.041-1.366.041c-.153,0-.223-.028-.223-.111,0-.041.029-.085.112-.085a2.031,2.031,0,0,0,.418-.055c.276-.055.348-.361.4-.766.07-.585.07-1.684.07-3.02v-5.89l-2.06.029c-.863.013-1.2.111-1.421.444a2.541,2.541,0,0,0-.237.434c-.041.109-.083.138-.14.138-.041,0-.07-.042-.07-.127,0-.137.28-1.336.307-1.447.026-.085.085-.263.14-.263a2.57,2.57,0,0,0,.614.166c.4.042.93.068,1.1.068h5.22a5.551,5.551,0,0,0,.99-.068c.208-.028.335-.07.39-.07s.07.083.07.167c0,.418-.042,1.377-.042,1.531,0,.125-.042.182-.1.182s-.1-.044-.112-.239l-.013-.153c-.041-.418-.377-.738-1.713-.764l-1.754-.029Zm-8.354.486c0-1.127-.07-1.281-.624-1.434a2.667,2.667,0,0,0-.473-.041c-.057,0-.115-.029-.115-.085,0-.083.07-.109.224-.109.627,0,1.5.039,1.574.039s.946-.039,1.366-.039c.151,0,.221.026.221.109,0,.055-.055.085-.111.085a2.05,2.05,0,0,0-.348.041c-.376.07-.488.307-.515.793-.028.447-.028.865-.028,1.448v1.559c0,.629-.015.655-.182.753a7.573,7.573,0,0,1-7.531-.863,5.433,5.433,0,0,1-1.657-3.968,5.28,5.28,0,0,1,2.325-4.581,6.842,6.842,0,0,1,3.7-.875,11.992,11.992,0,0,1,2.128.234,7.015,7.015,0,0,0,1.128.14c.14.013.167.07.167.125a17.658,17.658,0,0,0-.1,1.977c0,.223-.028.293-.127.293-.07,0-.083-.085-.094-.208a2.188,2.188,0,0,0-.294-.92c-.348-.528-1.476-1.127-3.272-1.127a3.977,3.977,0,0,0-4.355,4.454,5.681,5.681,0,0,0,1.473,3.856,5.065,5.065,0,0,0,3.648,1.491,3.79,3.79,0,0,0,1.588-.291.51.51,0,0,0,.278-.489ZM97.816,34.7c.028,1.143.167,1.5.543,1.617a3.008,3.008,0,0,0,.7.081c.07,0,.112.028.112.085,0,.083-.083.111-.252.111-.792,0-1.349-.041-1.474-.041s-.71.041-1.338.041c-.14,0-.221-.013-.221-.111,0-.057.041-.085.111-.085a1.986,1.986,0,0,0,.572-.081c.346-.1.415-.5.415-1.769L97,26.566c0-.543.042-.694.153-.694s.348.3.488.444c.208.237,2.282,2.479,4.427,4.776,1.377,1.474,2.9,3.173,3.342,3.632l-.154-7.071c-.011-.905-.111-1.211-.543-1.323a3.907,3.907,0,0,0-.683-.07c-.1,0-.111-.039-.111-.1,0-.081.111-.1.278-.1.627,0,1.3.041,1.45.041s.613-.041,1.182-.041c.153,0,.249.015.249.1,0,.059-.054.1-.151.1a1.2,1.2,0,0,0-.333.042c-.462.1-.519.4-.519,1.239l-.024,8.161c0,.917-.029.987-.127.987s-.276-.153-1.016-.891c-.153-.14-2.157-2.186-3.633-3.773-1.616-1.739-3.188-3.5-3.633-4Zm-5.332-2.143c0,1.336,0,2.435.07,3.02.041.4.124.71.541.766a5.741,5.741,0,0,0,.627.055c.081,0,.111.044.111.085,0,.07-.07.111-.223.111-.764,0-1.642-.041-1.712-.041s-.946.041-1.364.041c-.154,0-.223-.028-.223-.111,0-.041.026-.085.111-.085a2.061,2.061,0,0,0,.418-.055c.278-.055.348-.361.4-.766.07-.585.07-1.684.07-3.02V30.1c0-2.172,0-2.562-.026-3.006-.029-.473-.169-.71-.473-.78a1.937,1.937,0,0,0-.434-.057c-.055,0-.109-.028-.109-.083,0-.083.067-.111.221-.111.46,0,1.338.041,1.406.041s.948-.041,1.362-.041c.154,0,.224.028.224.111,0,.055-.055.083-.109.083a2.249,2.249,0,0,0-.35.042c-.379.07-.488.307-.515.795-.028.444-.028.834-.028,3.006Zm-7.827,0c0,1.336,0,2.435.07,3.02.042.4.127.71.543.766a5.741,5.741,0,0,0,.627.055c.085,0,.112.044.112.085,0,.07-.07.111-.221.111-.767,0-1.645-.041-1.715-.041s-.946.041-1.364.041c-.154,0-.224-.028-.224-.111,0-.041.029-.085.114-.085a2.076,2.076,0,0,0,.418-.055c.28-.055.348-.361.4-.766.07-.585.07-1.684.07-3.02v-5.89l-2.061.029c-.863.013-1.2.111-1.419.444a2.423,2.423,0,0,0-.237.434c-.042.109-.083.138-.14.138-.041,0-.07-.042-.07-.127,0-.137.28-1.336.307-1.447.029-.085.085-.263.14-.263a2.575,2.575,0,0,0,.611.166c.4.042.933.068,1.1.068h5.22a5.578,5.578,0,0,0,.99-.068c.208-.028.333-.07.39-.07s.067.083.067.167c0,.418-.041,1.377-.041,1.531,0,.125-.041.182-.1.182s-.1-.044-.112-.239l-.013-.153c-.042-.418-.377-.738-1.713-.764l-1.756-.029ZM68.884,34.7c.028,1.143.167,1.5.543,1.617a3,3,0,0,0,.7.081c.07,0,.111.028.111.085,0,.083-.081.111-.25.111-.793,0-1.349-.041-1.474-.041s-.71.041-1.335.041c-.14,0-.224-.013-.224-.111,0-.057.041-.085.111-.085a1.956,1.956,0,0,0,.571-.081c.349-.1.419-.5.419-1.769l.011-7.978c0-.543.042-.694.154-.694s.348.3.488.444c.208.237,2.282,2.479,4.427,4.776,1.379,1.474,2.9,3.173,3.339,3.632l-.151-7.071c-.015-.905-.111-1.211-.543-1.323a3.9,3.9,0,0,0-.679-.07c-.1,0-.115-.039-.115-.1,0-.081.115-.1.28-.1.626,0,1.3.041,1.448.041s.613-.041,1.183-.041c.153,0,.252.015.252.1,0,.059-.059.1-.154.1a1.2,1.2,0,0,0-.333.042c-.458.1-.517.4-.517,1.239L77.113,35.7c0,.917-.029.987-.125.987-.112,0-.28-.153-1.016-.891-.154-.14-2.159-2.186-3.636-3.773-1.614-1.739-3.188-3.5-3.632-4ZM56.142,30.1c0-2.172,0-2.562-.026-3.006-.028-.473-.14-.7-.6-.795a2.782,2.782,0,0,0-.473-.042c-.059,0-.112-.028-.112-.083,0-.083.07-.111.223-.111.629,0,1.476.041,1.6.041s.962-.041,1.38-.041c.154,0,.224.028.224.111,0,.055-.057.083-.115.083a2.308,2.308,0,0,0-.346.042c-.376.059-.488.307-.515.795-.028.444-.028.834-.028,3.006V32.05c0,2,.447,2.868,1.044,3.44a2.73,2.73,0,0,0,2.1.764,2.923,2.923,0,0,0,2.185-1,5.4,5.4,0,0,0,.808-3.409V30.1c0-2.172,0-2.562-.028-3.006-.028-.473-.14-.7-.6-.795a2.787,2.787,0,0,0-.475-.042c-.055,0-.111-.028-.111-.083,0-.083.07-.111.221-.111.627,0,1.393.041,1.478.041s.753-.041,1.167-.041c.154,0,.224.028.224.111,0,.055-.055.083-.109.083a2.249,2.249,0,0,0-.35.042c-.379.085-.488.307-.515.795-.028.444-.028.834-.028,3.006v1.491c0,1.5-.169,3.173-1.281,4.162a4.074,4.074,0,0,1-2.869,1.032,4.286,4.286,0,0,1-2.868-.99c-.681-.655-1.213-1.629-1.213-3.661Z" transform="translate(-40.891 -24.779)" fill="#fff"/>
    </g>
    <g id="Group_4" data-name="Group 4" transform="translate(45.834 25.884)">
      <path id="Path_3" data-name="Path 3" d="M46.349,43.313q-1.034,0-1.351-3.1c-.072,0-.158-.01-.257-.01a7.814,7.814,0,0,0-1.59.245,3.7,3.7,0,0,0-1.013.291c-.13.317-.333.8-.61,1.434-.115.3-.267.688-.46,1.174q-.224.546-.486.546c-.2,0-.3-.109-.3-.33a14.758,14.758,0,0,1,.9-1.9c.151-.3.258-.525.325-.678a2.71,2.71,0,0,0-.536.273.43.43,0,0,1-.234.063.25.25,0,0,1-.28-.286c0-.133.187-.267.558-.4.249-.08.5-.159.741-.244.091-.2.2-.428.325-.689q.324-.729,1.014-2.159c.46-.889.9-1.331,1.333-1.331a.642.642,0,0,1,.53.387,1.832,1.832,0,0,1,.21.535,20.864,20.864,0,0,1,.293,2.6q1.114.1,1.114.779a.36.36,0,0,1-.2.348c-.169.085-.255.028-.255-.166a1.053,1.053,0,0,1,.057-.182q0-.307-.741-.307c.046,0,.076.044.091.132q.371,2.585.8,2.585a.286.286,0,0,0,.177-.063.852.852,0,0,1,.163-.112.191.191,0,0,1,.083-.018q.2-.012.2.234c0,.106-.085.2-.252.267A.783.783,0,0,1,46.349,43.313Zm-1.562-5.407q-.188-1.234-.473-1.234t-1.042,1.593q-.261.554-.832,1.9a12.557,12.557,0,0,1,2.525-.478C44.936,39.309,44.878,38.718,44.787,37.906Z" transform="translate(-40.287 -35.931)" fill="#fff"/>
      <path id="Path_4" data-name="Path 4" d="M51.4,38.072h-.01q-.344-.024-1.032,1.435c-.28.66-.562,1.32-.842,1.982-.206.475-.358.712-.457.712-.124,0-.257-.213-.4-.639q-.127-.41-.462-1.356-.166-.41-.53-1.1c-.127-.237-.252-.471-.377-.707a.26.26,0,0,1-.023-.1.234.234,0,0,1,.122-.2.35.35,0,0,1,.187-.062q.222,0,.74,1.235c.02.044.232.6.644,1.671a1.827,1.827,0,0,1,.153.46l.2-.514q.585-1.5.792-1.9.656-1.268,1.283-1.27c.167,0,.25.07.25.21,0,.067-.047.111-.143.133A.246.246,0,0,1,51.4,38.072Z" transform="translate(-35.917 -34.978)" fill="#fff"/>
      <path id="Path_5" data-name="Path 5" d="M51.572,42.982c-.359,0-.636-.281-.826-.844a3.461,3.461,0,0,1-.2-1.133,7.563,7.563,0,0,1,.125-1.247c.124-.714.3-1.071.51-1.071.172,0,.258.1.258.3a1.72,1.72,0,0,1-.159.512,5.2,5.2,0,0,0-.241,1.4c.008.31.008.5,0,.559.05.234.1.47.148.706.1.312.245.467.439.467a.142.142,0,0,0,.091-.021.616.616,0,0,1,.223-.179.275.275,0,0,1,.119.193.317.317,0,0,1-.2.268A.572.572,0,0,1,51.572,42.982Zm-.34-5.628a.268.268,0,0,1-.215-.107.337.337,0,0,1-.089-.2.379.379,0,0,1,.089-.229.27.27,0,0,1,.224-.114c.2,0,.3.109.3.325S51.436,37.354,51.232,37.354Z" transform="translate(-33.868 -35.623)" fill="#fff"/>
      <path id="Path_6" data-name="Path 6" d="M55.862,40.941l-.21.262Q53.828,43.522,53,43.521h-.114a.508.508,0,0,1-.569-.58,3.757,3.757,0,0,1,.509-1.471,7.684,7.684,0,0,1,1.219-1.8,2.215,2.215,0,0,1,1.5-.87.92.92,0,0,1,.535.193q.115-.629.337-1.811.21-1.146.473-1.146a.327.327,0,0,1,.208.091.27.27,0,0,1,.1.211c0,.02-.046.185-.141.5a16.857,16.857,0,0,0-.723,4.745c0,.873.13,1.309.393,1.309l.086-.047a2.3,2.3,0,0,1,.244-.122.279.279,0,0,1,.1.193c0,.088-.057.167-.176.239a.55.55,0,0,1-.291.1q-.824,0-.826-1.9ZM55.6,39.192q-.639-.115-1.795,1.528a4.952,4.952,0,0,0-1.092,2.2c0,.106.042.161.125.161q.5,0,1.681-1.192a6.9,6.9,0,0,0,1.27-1.538,1.509,1.509,0,0,0,.125-.632.681.681,0,0,0-.093-.34A.364.364,0,0,0,55.6,39.192Z" transform="translate(-32.76 -36.037)" fill="#fff"/>
      <path id="Path_7" data-name="Path 7" d="M59.9,41.853q-.544-.193-.545-1.263v-.234a9.769,9.769,0,0,1-1.235,1.374,2.435,2.435,0,0,1-1.369.8.444.444,0,0,1-.283-.091.59.59,0,0,1-.2-.5,3.98,3.98,0,0,1,.764-1.92,8.471,8.471,0,0,1,1.617-1.9c.637-.543,1.11-.712,1.419-.512a.646.646,0,0,1,.215.575c0,.349-.12.536-.358.558-.169.011-.252-.047-.252-.176a.1.1,0,0,1,.011-.05,1.243,1.243,0,0,0,.1-.48c0-.083-.01-.124-.029-.12q-.563.1-1.826,1.741a5.137,5.137,0,0,0-1.261,2.258c0,.145.065.216.193.216q.5,0,1.554-1.281c.493-.592.759-.92.8-.985a1.855,1.855,0,0,0,.372-.826.25.25,0,0,1,.273-.257q.346,0,.278.337a14.443,14.443,0,0,0-.278,1.782c0,.389.085.6.257.65a.26.26,0,0,0,.193-.034c.057-.034.089-.068.094-.1a.275.275,0,0,1,.286-.245c.093,0,.137.05.137.148a.453.453,0,0,1-.034.154.64.64,0,0,1-.64.444A.671.671,0,0,1,59.9,41.853Z" transform="translate(-30.293 -35.11)" fill="#fff"/>
      <path id="Path_8" data-name="Path 8" d="M65.126,38.408c-.086,0-.193-.068-.323-.2a.553.553,0,0,0-.389-.2q-.7,0-1.429,1.291a4.073,4.073,0,0,0-.644,1.79q0,.717.6.717a2.112,2.112,0,0,0,1.185-.392,3.3,3.3,0,0,0,.93-.964.1.1,0,0,1,.091-.062c.046,0,.088.031.132.091a.18.18,0,0,1,.044.148,2.745,2.745,0,0,1-.639.764,5.166,5.166,0,0,1-.66.592,2.283,2.283,0,0,1-.706.307c-.011,0-.062,0-.148.015l-.143.015a1.027,1.027,0,0,1-.894-.428,1.482,1.482,0,0,1-.25-.883,4.077,4.077,0,0,1,.751-2.04q.866-1.383,1.835-1.388a1.3,1.3,0,0,1,.483.143c.278.12.421.268.434.442a.186.186,0,0,1-.089.182A.309.309,0,0,1,65.126,38.408Z" transform="translate(-26.775 -35.077)" fill="#fff"/>
      <path id="Path_9" data-name="Path 9" d="M66,42.273a.867.867,0,0,1-.792-.337,1.34,1.34,0,0,1-.273-.862,5.058,5.058,0,0,1,.418-1.9c.28-.681.54-1.021.785-1.021.219,0,.33.091.33.276a.832.832,0,0,1-.189.332,3.749,3.749,0,0,0-.9,2.216c0,.592.15.889.444.889.449,0,.886-.408,1.317-1.226a3.929,3.929,0,0,0,.564-1.7c0-.619-.154-.928-.46-.928a1.138,1.138,0,0,0-.753.376l-.086-.052a.146.146,0,0,1-.08-.137c0-.128.137-.26.41-.392a1.314,1.314,0,0,1,.509-.166c.613,0,.933.475.954,1.424a3.821,3.821,0,0,1-.61,1.816C67.1,41.76,66.569,42.223,66,42.273Z" transform="translate(-24.869 -35.033)" fill="#fff"/>
      <path id="Path_10" data-name="Path 10" d="M74.461,41.743c-.325,0-.595-.236-.8-.71a2.536,2.536,0,0,1-.245-1.008v-.553A5.933,5.933,0,0,0,73.4,38.8c-.016-.219-.055-.33-.112-.33A3.4,3.4,0,0,0,73,38.9q-.927,1.448-1,1.549-.771,1.073-1.208,1.071t-.478-.951c-.006-.176.01-.728.052-1.658.008-.208-.01-.312-.052-.312-.12,0-.441.468-.956,1.406a6.655,6.655,0,0,0-.844,1.954c-.01.14-.1.21-.262.21-.076,0-.145-.12-.206-.364a2.174,2.174,0,0,1-.062-.416q0-1.041.054-1.793a5.914,5.914,0,0,1,.174-1.18c.091-.348.193-.523.31-.523a.345.345,0,0,1,.229.091c.07.062.1.12.083.177a9.559,9.559,0,0,0-.348,2.494c.408-.736.694-1.229.852-1.474q.692-1.063,1.086-1.065c.315,0,.463.374.449,1.122q0,.119-.029.541c-.016.257-.023.462-.023.614a1.99,1.99,0,0,0,.086.666c.137-.041.372-.288.712-.741q.415-.568.7-1.058.749-1.3,1.091-1.3c.228,0,.372.219.432.655q.027.4.086,1.242c.067,1.013.245,1.525.535,1.531a.347.347,0,0,0,.293-.167c.085-.115.154-.174.208-.174.107,0,.159.059.159.171a.471.471,0,0,1-.284.4A.8.8,0,0,1,74.461,41.743Z" transform="translate(-22.959 -34.875)" fill="#fff"/>
      <path id="Path_11" data-name="Path 11" d="M74.062,40.126a1.389,1.389,0,0,0-.219.553,3.412,3.412,0,0,0-.115.8c0,.3.2.445.585.445a2.2,2.2,0,0,0,1.323-.655,3.689,3.689,0,0,0,1.019-1.317h.182c.073.068.1.133.073.193a3.46,3.46,0,0,1-1.105,1.59,2.308,2.308,0,0,1-1.474.61.96.96,0,0,1-.826-.377A1.417,1.417,0,0,1,73.265,41a4.471,4.471,0,0,1,.91-2.118q.929-1.356,1.692-1.356a.429.429,0,0,1,.393.239.745.745,0,0,1,.1.371,2.435,2.435,0,0,1-.473,1.281,1.563,1.563,0,0,1-1.281.871.81.81,0,0,1-.523-.148Zm1.738-2.2a.734.734,0,0,0-.392.262,6.285,6.285,0,0,0-1.187,1.617c0,.042.088.068.263.08.294.016.618-.2.967-.639a1.93,1.93,0,0,0,.514-1.149C75.966,37.956,75.91,37.9,75.8,37.928Z" transform="translate(-19.658 -35.103)" fill="#fff"/>
      <path id="Path_12" data-name="Path 12" d="M79.682,38.408a.521.521,0,0,1-.325-.2.553.553,0,0,0-.387-.2q-.7,0-1.431,1.291a4.065,4.065,0,0,0-.642,1.79c0,.478.2.717.6.717a2.107,2.107,0,0,0,1.183-.392,3.3,3.3,0,0,0,.93-.964.1.1,0,0,1,.089-.062.17.17,0,0,1,.132.091.191.191,0,0,1,.047.148,2.812,2.812,0,0,1-.639.764,5.421,5.421,0,0,1-.66.592,2.3,2.3,0,0,1-.709.307c-.01,0-.06,0-.146.015l-.143.015a1.025,1.025,0,0,1-.894-.428A1.483,1.483,0,0,1,76.439,41a4.082,4.082,0,0,1,.753-2.04q.868-1.383,1.835-1.388a1.31,1.31,0,0,1,.483.143c.278.12.423.268.434.442a.182.182,0,0,1-.088.182A.313.313,0,0,1,79.682,38.408Z" transform="translate(-17.67 -35.077)" fill="#fff"/>
      <path id="Path_13" data-name="Path 13" d="M82.954,41.853q-.544-.193-.543-1.263v-.234a10.093,10.093,0,0,1-1.237,1.374,2.447,2.447,0,0,1-1.367.8.453.453,0,0,1-.286-.091.59.59,0,0,1-.2-.5,4,4,0,0,1,.764-1.92,8.557,8.557,0,0,1,1.617-1.9c.639-.543,1.112-.712,1.418-.512a.638.638,0,0,1,.218.575c0,.349-.12.536-.359.558-.167.011-.25-.047-.25-.176a.116.116,0,0,1,.01-.05,1.213,1.213,0,0,0,.1-.48c0-.083-.01-.124-.028-.12q-.568.1-1.826,1.741a5.156,5.156,0,0,0-1.265,2.258c0,.145.067.216.193.216q.5,0,1.557-1.281.734-.888.8-.985a1.868,1.868,0,0,0,.371-.826.251.251,0,0,1,.273-.257c.232,0,.324.112.28.337a14.6,14.6,0,0,0-.28,1.782c0,.389.086.6.255.65a.263.263,0,0,0,.2-.034.186.186,0,0,0,.1-.1.275.275,0,0,1,.286-.245c.091,0,.137.05.137.148a.46.46,0,0,1-.036.154.64.64,0,0,1-.64.444A.677.677,0,0,1,82.954,41.853Z" transform="translate(-15.869 -35.11)" fill="#fff"/>
      <path id="Path_14" data-name="Path 14" d="M88.182,38.408a.522.522,0,0,1-.323-.2.553.553,0,0,0-.387-.2q-.7,0-1.431,1.291a4.044,4.044,0,0,0-.642,1.79c0,.478.2.717.6.717a2.107,2.107,0,0,0,1.183-.392,3.3,3.3,0,0,0,.93-.964.1.1,0,0,1,.089-.062.173.173,0,0,1,.132.091.191.191,0,0,1,.047.148,2.811,2.811,0,0,1-.639.764,5.422,5.422,0,0,1-.66.592,2.3,2.3,0,0,1-.709.307c-.01,0-.06,0-.146.015l-.143.015a1.025,1.025,0,0,1-.894-.428A1.483,1.483,0,0,1,84.941,41a4.082,4.082,0,0,1,.753-2.04q.868-1.383,1.835-1.388a1.31,1.31,0,0,1,.483.143c.278.12.423.268.434.442a.182.182,0,0,1-.088.182A.313.313,0,0,1,88.182,38.408Z" transform="translate(-12.351 -35.077)" fill="#fff"/>
      <path id="Path_15" data-name="Path 15" d="M89.054,42.273a.869.869,0,0,1-.793-.337,1.349,1.349,0,0,1-.273-.862,5.031,5.031,0,0,1,.419-1.9c.28-.681.54-1.021.784-1.021.219,0,.332.091.332.276a.822.822,0,0,1-.19.332,3.746,3.746,0,0,0-.9,2.216c0,.592.148.889.444.889q.671,0,1.317-1.226a3.922,3.922,0,0,0,.562-1.7q0-.929-.46-.928a1.142,1.142,0,0,0-.753.376l-.085-.052a.143.143,0,0,1-.08-.137c0-.128.137-.26.41-.392a1.308,1.308,0,0,1,.507-.166q.922,0,.956,1.424a3.821,3.821,0,0,1-.61,1.816Q89.914,42.2,89.054,42.273Z" transform="translate(-10.445 -35.033)" fill="#fff"/>
      <path id="Path_16" data-name="Path 16" d="M97.517,41.743c-.325,0-.593-.236-.8-.71a2.559,2.559,0,0,1-.244-1.008v-.553a5.929,5.929,0,0,0-.011-.673c-.018-.219-.055-.33-.112-.33a3.193,3.193,0,0,0-.289.432q-.927,1.448-1,1.549-.773,1.073-1.208,1.071c-.291,0-.452-.317-.478-.951-.006-.176.008-.728.052-1.658.008-.208-.01-.312-.052-.312q-.183,0-.956,1.406a6.608,6.608,0,0,0-.844,1.954c-.011.14-.1.21-.262.21-.076,0-.145-.12-.206-.364a2.174,2.174,0,0,1-.062-.416q0-1.041.052-1.793a6.024,6.024,0,0,1,.176-1.18c.089-.348.193-.523.311-.523a.345.345,0,0,1,.229.091c.07.062.1.12.081.177a9.558,9.558,0,0,0-.346,2.494q.612-1.1.852-1.474.692-1.063,1.086-1.065.471,0,.447,1.122c0,.08-.013.26-.028.541-.016.257-.023.462-.023.614a1.989,1.989,0,0,0,.086.666c.137-.041.371-.288.71-.741q.415-.568.706-1.058.749-1.3,1.091-1.3c.226,0,.371.219.431.655q.029.4.086,1.242c.068,1.013.247,1.525.535,1.531a.349.349,0,0,0,.294-.167c.085-.115.154-.174.208-.174.106,0,.158.059.158.171a.469.469,0,0,1-.283.4A.8.8,0,0,1,97.517,41.743Z" transform="translate(-8.535 -34.875)" fill="#fff"/>
      <path id="Path_17" data-name="Path 17" d="M102.42,38.072h-.011q-.341-.024-1.032,1.435c-.278.66-.561,1.32-.84,1.982q-.31.712-.457.712-.188,0-.4-.639-.124-.41-.462-1.356c-.109-.273-.288-.639-.53-1.1-.125-.237-.25-.471-.376-.707a.259.259,0,0,1-.023-.1.232.232,0,0,1,.12-.2.35.35,0,0,1,.187-.062q.222,0,.74,1.235c.02.044.234.6.645,1.671a2.026,2.026,0,0,1,.153.46l.2-.514q.585-1.5.79-1.9c.439-.845.865-1.27,1.283-1.27.169,0,.25.07.25.21,0,.067-.047.111-.141.133A.246.246,0,0,1,102.42,38.072Z" transform="translate(-4 -34.978)" fill="#fff"/>
      <path id="Path_18" data-name="Path 18" d="M102.3,42.273a.87.87,0,0,1-.793-.337,1.349,1.349,0,0,1-.273-.862,5.031,5.031,0,0,1,.419-1.9c.28-.681.54-1.021.785-1.021.218,0,.33.091.33.276a.832.832,0,0,1-.189.332,3.738,3.738,0,0,0-.9,2.216c0,.592.15.889.444.889.449,0,.886-.408,1.317-1.226a3.922,3.922,0,0,0,.562-1.7q0-.929-.46-.928a1.142,1.142,0,0,0-.753.376l-.085-.052a.143.143,0,0,1-.08-.137c0-.128.137-.26.41-.392a1.309,1.309,0,0,1,.507-.166c.614,0,.935.475.956,1.424a3.821,3.821,0,0,1-.61,1.816Q103.158,42.2,102.3,42.273Z" transform="translate(-2.16 -35.033)" fill="#fff"/>
      <path id="Path_19" data-name="Path 19" d="M107.331,38.408a.517.517,0,0,1-.325-.2.55.55,0,0,0-.389-.2c-.467,0-.944.429-1.429,1.291a4.073,4.073,0,0,0-.644,1.79q0,.717.6.717a2.12,2.12,0,0,0,1.185-.392,3.287,3.287,0,0,0,.927-.964.106.106,0,0,1,.093-.062.173.173,0,0,1,.13.091.188.188,0,0,1,.046.148,2.725,2.725,0,0,1-.637.764,5.123,5.123,0,0,1-.662.592,2.3,2.3,0,0,1-.706.307c-.011,0-.062,0-.148.015l-.143.015a1.023,1.023,0,0,1-.894-.428,1.482,1.482,0,0,1-.25-.883,4.066,4.066,0,0,1,.753-2.04q.863-1.383,1.834-1.388a1.31,1.31,0,0,1,.483.143c.276.12.423.268.432.442a.18.18,0,0,1-.088.182A.313.313,0,0,1,107.331,38.408Z" transform="translate(-0.372 -35.077)" fill="#fff"/>
      <path id="Path_20" data-name="Path 20" d="M107.922,40.126a1.3,1.3,0,0,0-.219.553,3.34,3.34,0,0,0-.117.8c0,.3.2.445.588.445a2.193,2.193,0,0,0,1.32-.655,3.689,3.689,0,0,0,1.019-1.317h.182c.072.068.1.133.075.193a3.484,3.484,0,0,1-1.105,1.59,2.312,2.312,0,0,1-1.476.61.962.962,0,0,1-.826-.377,1.417,1.417,0,0,1-.239-.967,4.465,4.465,0,0,1,.914-2.118q.924-1.356,1.691-1.356a.43.43,0,0,1,.392.239.713.713,0,0,1,.1.371,2.431,2.431,0,0,1-.471,1.281,1.563,1.563,0,0,1-1.283.871.807.807,0,0,1-.523-.148Zm1.738-2.2a.747.747,0,0,0-.4.262,6.269,6.269,0,0,0-1.183,1.617c0,.042.088.068.262.08.3.016.619-.2.969-.639a1.936,1.936,0,0,0,.512-1.149C109.824,37.956,109.768,37.9,109.659,37.928Z" transform="translate(1.524 -35.103)" fill="#fff"/>
    </g>
  </g>
</svg>
