<svg xmlns="http://www.w3.org/2000/svg" width="1769.552" height="1576.973" viewBox="0 0 1769.552 1576.973">
  <g id="Group_656" data-name="Group 656" transform="translate(-75 205)">
    <g id="Group_654" data-name="Group 654" transform="translate(75 -205)" opacity="0.2">
      <path id="Path_2" data-name="Path 2" d="M1235.334,20.114A543.832,543.832,0,0,0,986.408,80.175c-21.237,12.333-10.071,31.6,12.406,21.163a485.391,485.391,0,0,1,210.248-47.727c268.7,0,486.4,217.838,486.4,486.469,0,268.558-217.692,486.323-486.4,486.323-268.63,0-486.469-217.765-486.469-486.323a485.99,485.99,0,0,1,27.221-160.4c6.86-20.872-16.785-28.315-24.74-8.247A544.871,544.871,0,0,0,689.1,566.351c0,301.689,244.621,546.237,546.237,546.237,301.689,0,546.311-244.548,546.311-546.237S1537.023,20.114,1235.334,20.114M120.236,479C194.819,80.1,660.052,80.977,909.051,296.553c30.5,32.037,42.181,103.628,90.419,147.707,55.244,50.136,130.119,53.42,158.142,20,31.089-37.146,16.42-105.307-60.936-153.618-48.53-30.432-140.555-29.921-163.689-48.676C773.824,133.156,450.825-40.676,188.4,160.085c-37.51,28.753-62.177,50.573-94.36,97.79C-251.147,761.2,580.068,1399.464,993.486,1597.087,952.619,1572.494,27.993,971.888,120.236,479" transform="translate(-12.092 -20.114)" fill="#b1c6b8"/>
    </g>
    <g id="Group_655" data-name="Group 655" transform="translate(167.918 473.5)">
      <path id="Path_2-2" data-name="Path 2" d="M416.981,20.114a180.007,180.007,0,0,0-82.394,19.88c-7.029,4.082-3.333,10.459,4.106,7.005a161.088,161.088,0,1,1-82.418,92.129c2.271-6.908-5.556-9.372-8.189-2.73a180.351,180.351,0,0,0-11.909,64.519c0,99.858,80.969,180.8,180.8,180.8,99.858,0,180.827-80.945,180.827-180.8s-80.969-180.8-180.827-180.8M47.887,172C72.574,39.97,226.565,40.26,308.983,111.614c10.1,10.6,13.962,34.3,29.928,48.89,18.286,16.595,43.069,17.682,52.345,6.619,10.29-12.3,5.435-34.856-20.17-50.847-16.063-10.073-46.523-9.9-54.18-16.112C264.223,57.531,157.311-.007,70.449,66.444c-12.416,9.517-20.58,16.74-31.233,32.368C-75.039,265.412,200.09,476.674,336.931,542.087,323.4,533.947,17.355,335.148,47.887,172" transform="translate(-12.092 -20.114)" fill="#b1c6b8"/>
    </g>
  </g>
</svg>
