<svg xmlns="http://www.w3.org/2000/svg" width="314.706" height="69.831" viewBox="0 0 314.706 69.831">
  <g id="Group_17" data-name="Group 17" transform="translate(-12.092 -20.114)">
    <g id="Group_14" data-name="Group 14" transform="translate(12.092 20.114)">
      <g id="Group_12" data-name="Group 12">
        <g id="Group_10" data-name="Group 10" transform="translate(92.369 14.963)">
          <path id="Path_23" data-name="Path 23" d="M62.2,39.148c0,2.96,0,5.4.154,6.691.09.9.276,1.575,1.2,1.7a13.733,13.733,0,0,0,1.389.125c.183,0,.244.09.244.18,0,.157-.154.247-.491.247-1.7,0-3.637-.09-3.794-.09s-2.1.09-3.021.09c-.34,0-.494-.061-.494-.247,0-.09.064-.18.244-.18a4.806,4.806,0,0,0,.927-.125c.622-.125.773-.8.9-1.7.151-1.293.151-3.73.151-6.691V35.915a.179.179,0,0,0-.186-.189H46.353a.167.167,0,0,0-.189.189v3.233c0,2.96,0,5.4.154,6.691.09.9.279,1.575,1.206,1.7a13.76,13.76,0,0,0,1.386.125c.186,0,.25.09.25.18,0,.157-.157.247-.5.247-1.7,0-3.637-.09-3.791-.09s-2.1.09-3.025.09c-.34,0-.491-.061-.491-.247,0-.09.061-.18.247-.18a4.775,4.775,0,0,0,.921-.125c.622-.125.773-.8.9-1.7.154-1.293.154-3.73.154-6.691V33.721c0-4.811,0-5.674-.061-6.655-.064-1.049-.308-1.546-1.328-1.761a5.518,5.518,0,0,0-1.046-.09c-.125,0-.25-.067-.25-.189,0-.186.154-.247.494-.247,1.389,0,3.333.093,3.486.093s2.094-.093,3.021-.093c.34,0,.494.061.494.247,0,.122-.125.189-.25.189a4.268,4.268,0,0,0-.77.09c-.834.157-1.078.677-1.139,1.761-.064.981-.064,1.844-.064,6.655v.648a.167.167,0,0,0,.189.189h13.07a.166.166,0,0,0,.186-.189v-.648c0-4.811,0-5.674-.061-6.655-.061-1.049-.311-1.546-1.325-1.761a5.518,5.518,0,0,0-1.046-.09c-.125,0-.25-.067-.25-.189,0-.186.154-.247.491-.247,1.389,0,3.332.093,3.486.093s2.1-.093,3.021-.093c.343,0,.494.061.494.247,0,.122-.122.189-.247.189a4.268,4.268,0,0,0-.77.09c-.834.157-1.081.677-1.139,1.761-.064.981-.064,1.844-.064,6.655Zm182.761,5.2c.055,2.255.33,2.967,1.071,3.191a5.912,5.912,0,0,0,1.37.16c.141,0,.228.055.228.167,0,.164-.17.218-.5.218-1.568,0-2.669-.08-2.912-.08s-1.4.08-2.64.08c-.273,0-.436-.026-.436-.218,0-.112.083-.167.218-.167a3.886,3.886,0,0,0,1.126-.16c.686-.2.824-.991.824-3.49l.032-15.742c0-1.071.077-1.37.3-1.37s.683.6.962.876c.411.468,4.5,4.891,8.734,9.423,2.723,2.909,5.712,6.261,6.594,7.165l-.3-13.952c-.026-1.787-.218-2.389-1.071-2.611a7.68,7.68,0,0,0-1.347-.138c-.192,0-.215-.077-.215-.192,0-.16.215-.189.542-.189,1.241,0,2.556.08,2.861.08s1.209-.08,2.335-.08c.3,0,.494.029.494.189,0,.115-.106.192-.3.192a2.4,2.4,0,0,0-.661.083c-.9.192-1.017.8-1.017,2.444l-.055,16.1c0,1.809-.055,1.947-.244,1.947-.221,0-.552-.3-2.008-1.758-.3-.276-4.256-4.314-7.165-7.444-3.191-3.432-6.29-6.9-7.172-7.884ZM227.6,26.934c6.181,0,10.8,3.9,10.8,10.3,0,6.152-4.343,11.236-10.963,11.236-7.525,0-10.658-5.854-10.658-10.8A10.634,10.634,0,0,1,227.6,26.934m.577,20.486c2.47,0,7.579-1.427,7.579-9.42,0-6.591-4.009-10.132-8.349-10.132-4.593,0-8.022,3.018-8.022,9.032,0,6.4,3.846,10.52,8.791,10.52m-20.579-7.3c0,2.636,0,4.8.141,5.959.077.8.241,1.4,1.068,1.511a11.264,11.264,0,0,0,1.238.109c.167,0,.218.087.218.167,0,.138-.138.218-.443.218-1.507,0-3.236-.08-3.374-.08s-1.867.08-2.694.08c-.3,0-.439-.055-.439-.218,0-.08.058-.167.221-.167a4.008,4.008,0,0,0,.824-.109c.545-.109.686-.712.8-1.511.138-1.155.138-3.323.138-5.959V28.5l-4.064.058c-1.7.026-2.364.218-2.8.876a5.011,5.011,0,0,0-.468.856c-.08.215-.164.273-.276.273-.08,0-.138-.083-.138-.25,0-.269.552-2.636.606-2.855.051-.167.167-.52.276-.52a5.07,5.07,0,0,0,1.212.327c.792.083,1.835.135,2.165.135h10.3a10.954,10.954,0,0,0,1.953-.135c.411-.055.661-.138.77-.138.138,0,.138.164.138.33,0,.824-.083,2.717-.083,3.021,0,.247-.083.359-.192.359-.138,0-.189-.087-.221-.471l-.026-.3c-.08-.824-.744-1.456-3.381-1.507L207.6,28.5Zm-16.483.959c0-2.223-.138-2.527-1.232-2.829a5.261,5.261,0,0,0-.933-.08c-.112,0-.228-.058-.228-.167,0-.164.138-.215.443-.215,1.238,0,2.967.077,3.1.077s1.867-.077,2.694-.077c.3,0,.436.051.436.215,0,.109-.109.167-.218.167a4.043,4.043,0,0,0-.686.08c-.741.138-.962.606-1.017,1.565-.055.882-.055,1.706-.055,2.858v3.076c0,1.241-.029,1.293-.359,1.485a13.573,13.573,0,0,1-5.821,1.238c-2.088,0-5.988-.276-9.038-2.941a10.72,10.72,0,0,1-3.268-7.829,10.418,10.418,0,0,1,4.587-9.038,13.5,13.5,0,0,1,7.31-1.726,23.66,23.66,0,0,1,4.2.462,13.842,13.842,0,0,0,2.226.276c.276.026.33.138.33.247a34.836,34.836,0,0,0-.192,3.9c0,.439-.055.577-.25.577-.138,0-.164-.167-.186-.411a4.317,4.317,0,0,0-.581-1.815c-.686-1.042-2.912-2.223-6.456-2.223a8.758,8.758,0,0,0-5.876,1.815c-1.594,1.261-2.717,3.759-2.717,6.973a11.208,11.208,0,0,0,2.906,7.608,9.993,9.993,0,0,0,7.2,2.941,7.478,7.478,0,0,0,3.134-.574,1.007,1.007,0,0,0,.548-.965Zm-37.908,3.268c.055,2.255.33,2.967,1.071,3.191a5.936,5.936,0,0,0,1.373.16c.138,0,.221.055.221.167,0,.164-.164.218-.5.218-1.562,0-2.662-.08-2.909-.08s-1.4.08-2.64.08c-.276,0-.436-.026-.436-.218,0-.112.08-.167.218-.167a3.919,3.919,0,0,0,1.129-.16c.683-.2.818-.991.818-3.49l.032-15.742c0-1.071.083-1.37.3-1.37s.686.6.962.876c.411.468,4.5,4.891,8.734,9.423,2.717,2.909,5.716,6.261,6.594,7.165l-.3-13.952c-.022-1.787-.218-2.389-1.071-2.611a7.707,7.707,0,0,0-1.347-.138c-.189,0-.218-.077-.218-.192,0-.16.218-.189.548-.189,1.238,0,2.556.08,2.861.08s1.209-.08,2.332-.08c.3,0,.491.029.491.189,0,.115-.106.192-.3.192a2.372,2.372,0,0,0-.658.083c-.911.192-1.023.8-1.023,2.444l-.048,16.1c0,1.809-.058,1.947-.25,1.947-.218,0-.545-.3-2-1.758-.3-.276-4.256-4.314-7.169-7.444-3.188-3.432-6.29-6.9-7.169-7.884Zm-10.52-4.227c0,2.636,0,4.8.138,5.959.08.8.244,1.4,1.068,1.511a11.331,11.331,0,0,0,1.238.109c.16,0,.218.087.218.167,0,.138-.138.218-.439.218-1.507,0-3.239-.08-3.377-.08s-1.867.08-2.691.08c-.3,0-.439-.055-.439-.218,0-.08.051-.167.218-.167a4.066,4.066,0,0,0,.824-.109c.548-.109.686-.712.8-1.511.138-1.155.138-3.323.138-5.959V35.28c0-4.285,0-5.055-.051-5.93-.058-.933-.334-1.4-.933-1.54a3.822,3.822,0,0,0-.856-.112c-.109,0-.215-.055-.215-.164,0-.164.132-.218.436-.218.908,0,2.64.08,2.774.08s1.87-.08,2.688-.08c.3,0,.443.055.443.218,0,.109-.109.164-.215.164a4.438,4.438,0,0,0-.69.083c-.747.138-.962.606-1.017,1.568-.055.876-.055,1.645-.055,5.93Zm-15.444,0c0,2.636,0,4.8.138,5.959.083.8.25,1.4,1.071,1.511a11.33,11.33,0,0,0,1.238.109c.167,0,.221.087.221.167,0,.138-.138.218-.436.218-1.514,0-3.246-.08-3.384-.08s-1.867.08-2.691.08c-.3,0-.443-.055-.443-.218,0-.08.058-.167.225-.167a4.1,4.1,0,0,0,.824-.109c.552-.109.686-.712.8-1.511.138-1.155.138-3.323.138-5.959V28.5l-4.067.058c-1.7.026-2.361.218-2.8.876a4.782,4.782,0,0,0-.468.856c-.083.215-.164.273-.276.273-.08,0-.138-.083-.138-.25,0-.269.552-2.636.606-2.855.058-.167.167-.52.276-.52a5.08,5.08,0,0,0,1.206.327c.8.083,1.841.135,2.171.135h10.3a11,11,0,0,0,1.953-.135c.411-.055.657-.138.77-.138.132,0,.132.164.132.33,0,.824-.08,2.717-.08,3.021,0,.247-.08.359-.189.359-.138,0-.192-.087-.221-.471l-.026-.3c-.083-.824-.744-1.456-3.381-1.507l-3.464-.058ZM96.122,44.344c.055,2.255.33,2.967,1.071,3.191a5.918,5.918,0,0,0,1.373.16c.138,0,.218.055.218.167,0,.164-.16.218-.494.218-1.565,0-2.662-.08-2.909-.08s-1.4.08-2.633.08c-.276,0-.443-.026-.443-.218,0-.112.08-.167.218-.167a3.859,3.859,0,0,0,1.126-.16c.69-.2.827-.991.827-3.49L94.5,28.3c0-1.071.083-1.37.3-1.37s.686.6.962.876c.411.468,4.5,4.891,8.734,9.423,2.72,2.909,5.712,6.261,6.588,7.165l-.3-13.952c-.029-1.787-.218-2.389-1.071-2.611a7.7,7.7,0,0,0-1.341-.138c-.2,0-.228-.077-.228-.192,0-.16.228-.189.552-.189,1.235,0,2.556.08,2.858.08s1.209-.08,2.335-.08c.3,0,.5.029.5.189,0,.115-.115.192-.3.192a2.372,2.372,0,0,0-.658.083c-.9.192-1.02.8-1.02,2.444l-.051,16.1c0,1.809-.058,1.947-.247,1.947-.221,0-.552-.3-2-1.758-.3-.276-4.259-4.314-7.175-7.444-3.185-3.432-6.29-6.9-7.165-7.884ZM70.983,35.28c0-4.285,0-5.055-.051-5.93-.055-.933-.276-1.376-1.18-1.568a5.49,5.49,0,0,0-.933-.083c-.115,0-.221-.055-.221-.164,0-.164.138-.218.439-.218,1.241,0,2.912.08,3.156.08s1.9-.08,2.723-.08c.3,0,.443.055.443.218,0,.109-.112.164-.228.164a4.554,4.554,0,0,0-.683.083c-.741.115-.962.606-1.017,1.568-.055.876-.055,1.645-.055,5.93v3.846c0,3.955.882,5.658,2.059,6.787a5.387,5.387,0,0,0,4.15,1.507A5.768,5.768,0,0,0,83.9,45.444c1.264-1.565,1.594-3.9,1.594-6.726V35.28c0-4.285,0-5.055-.055-5.93-.055-.933-.276-1.376-1.18-1.568a5.5,5.5,0,0,0-.937-.083c-.109,0-.218-.055-.218-.164,0-.164.138-.218.436-.218,1.238,0,2.749.08,2.916.08.192,0,1.485-.08,2.3-.08.3,0,.443.055.443.218,0,.109-.109.164-.215.164a4.438,4.438,0,0,0-.69.083c-.747.167-.962.606-1.017,1.568-.055.876-.055,1.645-.055,5.93v2.941c0,2.967-.334,6.261-2.527,8.211a8.038,8.038,0,0,1-5.661,2.037,8.456,8.456,0,0,1-5.658-1.953c-1.344-1.293-2.393-3.214-2.393-7.223Z" transform="translate(-40.891 -24.779)" fill="#3e6f55"/>
        </g>
        <g id="Group_11" data-name="Group 11">
          <path id="Path_24" data-name="Path 24" d="M65.854,20.114a23.9,23.9,0,0,0-10.94,2.64c-.933.542-.443,1.389.545.93A21.39,21.39,0,1,1,44.515,35.917c.3-.917-.738-1.244-1.087-.362a24.009,24.009,0,1,0,22.426-15.44M16.845,40.282C20.123,22.75,40.57,22.789,51.514,32.264c1.341,1.408,1.854,4.555,3.974,6.492,2.428,2.2,5.719,2.348,6.95.879C63.8,38,63.16,35.006,59.76,32.883c-2.133-1.337-6.177-1.315-7.194-2.139-7-5.661-21.191-13.3-32.725-4.478a16.337,16.337,0,0,0-4.147,4.3C.523,52.685,37.055,80.737,55.225,89.423c-1.8-1.081-42.434-27.478-38.38-49.141" transform="translate(-12.092 -20.114)" fill="#b1c6b8"/>
        </g>
      </g>
      <g id="Group_13" data-name="Group 13" transform="translate(90.432 51.071)">
        <path id="Path_25" data-name="Path 25" d="M52.247,50.229q-2.04-.01-2.665-6.117c-.141-.01-.311-.019-.507-.019a15.416,15.416,0,0,0-3.137.484,7.309,7.309,0,0,0-2,.574c-.257.625-.658,1.572-1.2,2.829-.228.584-.526,1.357-.908,2.316q-.443,1.078-.959,1.078c-.388,0-.584-.215-.584-.651a29.117,29.117,0,0,1,1.777-3.753c.3-.593.51-1.036.641-1.337a5.346,5.346,0,0,0-1.058.539.848.848,0,0,1-.462.125.493.493,0,0,1-.552-.565c0-.263.369-.526,1.1-.8.491-.157.978-.314,1.463-.481.18-.388.395-.844.641-1.36q.64-1.439,2-4.259c.908-1.754,1.783-2.627,2.63-2.627a1.267,1.267,0,0,1,1.046.763,3.614,3.614,0,0,1,.414,1.055,41.171,41.171,0,0,1,.577,5.138q2.2.188,2.2,1.536a.711.711,0,0,1-.391.686c-.334.167-.5.055-.5-.327a2.077,2.077,0,0,1,.112-.359q0-.606-1.463-.606c.09,0,.151.087.18.26q.731,5.1,1.584,5.1a.564.564,0,0,0,.35-.125,1.682,1.682,0,0,1,.321-.221.377.377,0,0,1,.164-.035q.4-.024.4.462c0,.208-.167.385-.5.526A1.546,1.546,0,0,1,52.247,50.229ZM49.165,39.561q-.37-2.434-.933-2.434T46.176,40.27q-.515,1.092-1.642,3.743a24.776,24.776,0,0,1,4.981-.943Q49.433,41.958,49.165,39.561Z" transform="translate(-40.287 -35.664)" fill="#3e6f55"/>
        <path id="Path_26" data-name="Path 26" d="M55.42,38.406H55.4q-.678-.048-2.037,2.832c-.552,1.3-1.11,2.6-1.661,3.91-.407.937-.706,1.4-.9,1.4-.244,0-.507-.42-.783-1.261q-.25-.808-.911-2.675-.327-.808-1.046-2.165c-.25-.468-.5-.93-.744-1.4a.512.512,0,0,1-.045-.2.461.461,0,0,1,.241-.385.69.69,0,0,1,.369-.122q.438,0,1.459,2.438c.038.087.459,1.18,1.27,3.3a3.6,3.6,0,0,1,.3.908l.395-1.014q1.155-2.954,1.562-3.743,1.294-2.5,2.531-2.5c.33,0,.494.138.494.414,0,.131-.093.218-.282.263A.486.486,0,0,1,55.42,38.406Z" transform="translate(-24.866 -32.302)" fill="#3e6f55"/>
        <path id="Path_27" data-name="Path 27" d="M52.569,49.1c-.709,0-1.254-.555-1.629-1.665a6.83,6.83,0,0,1-.391-2.236,14.92,14.92,0,0,1,.247-2.46c.244-1.408.584-2.114,1.007-2.114.34,0,.51.2.51.584A3.393,3.393,0,0,1,52,42.216a10.261,10.261,0,0,0-.475,2.755c.016.613.016.985,0,1.1.1.462.2.927.292,1.392.2.616.484.921.866.921a.28.28,0,0,0,.18-.042,1.215,1.215,0,0,1,.439-.353.543.543,0,0,1,.234.382.626.626,0,0,1-.391.529A1.128,1.128,0,0,1,52.569,49.1Zm-.67-11.1a.528.528,0,0,1-.423-.212.664.664,0,0,1-.176-.4.747.747,0,0,1,.176-.452.533.533,0,0,1,.443-.225c.391,0,.584.215.584.641S52.3,37.992,51.9,37.992Z" transform="translate(-17.637 -34.576)" fill="#3e6f55"/>
        <path id="Path_28" data-name="Path 28" d="M59.31,45.714l-.414.516q-3.6,4.575-5.231,4.574h-.225a1,1,0,0,1-1.123-1.145,7.413,7.413,0,0,1,1-2.9,15.161,15.161,0,0,1,2.406-3.551,4.37,4.37,0,0,1,2.954-1.716,1.816,1.816,0,0,1,1.055.382q.226-1.241.664-3.573.414-2.261.933-2.261a.646.646,0,0,1,.411.18.532.532,0,0,1,.205.417c0,.038-.09.366-.279.988a33.261,33.261,0,0,0-1.427,9.362c0,1.722.257,2.582.776,2.582l.17-.093a4.539,4.539,0,0,1,.481-.241.55.55,0,0,1,.189.382c0,.173-.112.33-.346.471a1.085,1.085,0,0,1-.574.189q-1.626,0-1.629-3.753ZM58.8,42.263q-1.26-.226-3.541,3.015-2.155,3.065-2.155,4.346c0,.208.083.318.247.318q.977,0,3.316-2.351a13.621,13.621,0,0,0,2.5-3.034,2.978,2.978,0,0,0,.247-1.248,1.344,1.344,0,0,0-.183-.67A.719.719,0,0,0,58.8,42.263Z" transform="translate(-13.73 -36.037)" fill="#3e6f55"/>
        <path id="Path_29" data-name="Path 29" d="M63.437,46.072q-1.073-.38-1.074-2.492v-.462a19.275,19.275,0,0,1-2.438,2.71,4.8,4.8,0,0,1-2.7,1.572.875.875,0,0,1-.558-.18,1.165,1.165,0,0,1-.4-.988,7.853,7.853,0,0,1,1.507-3.788,16.715,16.715,0,0,1,3.191-3.756c1.257-1.071,2.191-1.4,2.8-1.01a1.274,1.274,0,0,1,.423,1.135c0,.69-.237,1.058-.706,1.1-.334.022-.5-.093-.5-.346a.19.19,0,0,1,.022-.1,2.451,2.451,0,0,0,.205-.946c0-.164-.019-.244-.058-.237q-1.111.2-3.6,3.435t-2.489,4.455c0,.285.128.427.382.427q.981,0,3.066-2.527c.972-1.167,1.5-1.815,1.584-1.944a3.659,3.659,0,0,0,.734-1.629.493.493,0,0,1,.539-.507q.683,0,.548.664a28.5,28.5,0,0,0-.548,3.515c0,.767.167,1.19.507,1.283a.513.513,0,0,0,.382-.067c.112-.067.176-.135.186-.2a.543.543,0,0,1,.565-.484c.183,0,.269.1.269.292a.893.893,0,0,1-.067.3,1.263,1.263,0,0,1-1.264.876A1.324,1.324,0,0,1,63.437,46.072Z" transform="translate(-5.024 -32.768)" fill="#3e6f55"/>
        <path id="Path_30" data-name="Path 30" d="M68.278,39.221c-.17,0-.382-.135-.638-.4a1.091,1.091,0,0,0-.767-.4q-1.381,0-2.819,2.547a8.035,8.035,0,0,0-1.27,3.531q0,1.414,1.19,1.414a4.166,4.166,0,0,0,2.338-.773,6.5,6.5,0,0,0,1.835-1.9.2.2,0,0,1,.18-.122c.09,0,.173.061.26.18a.355.355,0,0,1,.087.292,5.416,5.416,0,0,1-1.26,1.507,10.191,10.191,0,0,1-1.3,1.167,4.5,4.5,0,0,1-1.392.606c-.022,0-.122.01-.292.029s-.266.029-.282.029a2.026,2.026,0,0,1-1.764-.844,2.925,2.925,0,0,1-.494-1.742,8.044,8.044,0,0,1,1.482-4.025q1.708-2.728,3.621-2.739a2.569,2.569,0,0,1,.953.282c.548.237.831.529.856.872a.368.368,0,0,1-.176.359A.609.609,0,0,1,68.278,39.221Z" transform="translate(7.391 -32.649)" fill="#3e6f55"/>
        <path id="Path_31" data-name="Path 31" d="M67.033,46.78a1.711,1.711,0,0,1-1.562-.664,2.643,2.643,0,0,1-.539-1.7,9.98,9.98,0,0,1,.824-3.746c.552-1.344,1.065-2.014,1.549-2.014.433,0,.651.18.651.545a1.642,1.642,0,0,1-.372.654,7.4,7.4,0,0,0-1.777,4.372c0,1.167.3,1.754.876,1.754.885,0,1.748-.805,2.6-2.418A7.752,7.752,0,0,0,70.394,40.2c0-1.222-.3-1.831-.908-1.831A2.246,2.246,0,0,0,68,39.114l-.17-.1a.288.288,0,0,1-.157-.269c0-.253.269-.513.808-.773a2.592,2.592,0,0,1,1-.327c1.209,0,1.841.937,1.883,2.81a7.539,7.539,0,0,1-1.2,3.583C69.211,45.766,68.162,46.68,67.033,46.78Z" transform="translate(14.114 -32.494)" fill="#3e6f55"/>
        <path id="Path_32" data-name="Path 32" d="M80.763,45.489c-.641,0-1.174-.465-1.584-1.4a5,5,0,0,1-.484-1.989V41.008a11.7,11.7,0,0,0-.022-1.328c-.032-.433-.109-.651-.221-.651a6.7,6.7,0,0,0-.571.853q-1.828,2.858-1.973,3.057-1.52,2.117-2.383,2.114t-.943-1.876c-.013-.346.019-1.437.1-3.272.016-.411-.019-.616-.1-.616-.237,0-.869.924-1.886,2.774a13.131,13.131,0,0,0-1.665,3.855c-.019.276-.2.414-.516.414-.151,0-.285-.237-.407-.718a4.288,4.288,0,0,1-.122-.821q0-2.054.106-3.538a11.669,11.669,0,0,1,.343-2.329c.18-.686.382-1.033.613-1.033a.681.681,0,0,1,.452.18c.138.122.192.237.164.35a18.861,18.861,0,0,0-.686,4.92c.805-1.453,1.37-2.425,1.681-2.909q1.366-2.1,2.143-2.1c.622,0,.914.738.885,2.213q-.01.236-.058,1.068c-.032.507-.045.911-.045,1.212a3.926,3.926,0,0,0,.17,1.315c.269-.08.735-.568,1.4-1.463q.818-1.121,1.389-2.088,1.477-2.56,2.152-2.563c.449,0,.735.433.853,1.293q.053.794.17,2.45c.132,2,.484,3.009,1.055,3.021a.684.684,0,0,0,.577-.33c.167-.228.3-.343.411-.343.212,0,.314.115.314.337a.929.929,0,0,1-.561.786A1.573,1.573,0,0,1,80.763,45.489Z" transform="translate(20.854 -31.938)" fill="#3e6f55"/>
        <path id="Path_33" data-name="Path 33" d="M74.841,42.652a2.742,2.742,0,0,0-.433,1.091,6.732,6.732,0,0,0-.228,1.584c0,.584.385.879,1.155.879a4.332,4.332,0,0,0,2.611-1.293,7.279,7.279,0,0,0,2.011-2.6h.359c.144.135.189.263.144.382a6.826,6.826,0,0,1-2.181,3.137,4.554,4.554,0,0,1-2.909,1.2,1.9,1.9,0,0,1-1.629-.744,2.8,2.8,0,0,1-.472-1.908,8.821,8.821,0,0,1,1.8-4.179Q76.9,37.53,78.4,37.53A.847.847,0,0,1,79.18,38a1.47,1.47,0,0,1,.2.731,4.8,4.8,0,0,1-.933,2.527,3.084,3.084,0,0,1-2.527,1.719,1.6,1.6,0,0,1-1.033-.292Zm3.429-4.336a1.448,1.448,0,0,0-.773.516q-2.338,2.742-2.341,3.191c0,.083.173.135.52.157.581.032,1.219-.388,1.908-1.261A3.808,3.808,0,0,0,78.6,38.653C78.6,38.37,78.488,38.255,78.269,38.316Z" transform="translate(32.501 -32.741)" fill="#3e6f55"/>
        <path id="Path_34" data-name="Path 34" d="M82.838,39.221a1.027,1.027,0,0,1-.641-.4,1.09,1.09,0,0,0-.763-.4q-1.381,0-2.823,2.547a8.021,8.021,0,0,0-1.267,3.531c0,.943.395,1.414,1.19,1.414a4.157,4.157,0,0,0,2.335-.773,6.5,6.5,0,0,0,1.835-1.9.2.2,0,0,1,.176-.122.336.336,0,0,1,.26.18.376.376,0,0,1,.093.292,5.547,5.547,0,0,1-1.26,1.507,10.693,10.693,0,0,1-1.3,1.167,4.543,4.543,0,0,1-1.4.606c-.019,0-.119.01-.289.029s-.269.029-.282.029a2.023,2.023,0,0,1-1.764-.844,2.926,2.926,0,0,1-.5-1.742,8.053,8.053,0,0,1,1.485-4.025q1.713-2.728,3.621-2.739a2.585,2.585,0,0,1,.953.282c.548.237.834.529.856.872a.36.36,0,0,1-.173.359A.618.618,0,0,1,82.838,39.221Z" transform="translate(39.515 -32.649)" fill="#3e6f55"/>
        <path id="Path_35" data-name="Path 35" d="M86.493,46.072q-1.073-.38-1.071-2.492v-.462a19.913,19.913,0,0,1-2.441,2.71,4.828,4.828,0,0,1-2.7,1.572.894.894,0,0,1-.565-.18,1.163,1.163,0,0,1-.4-.988,7.886,7.886,0,0,1,1.507-3.788,16.882,16.882,0,0,1,3.191-3.756c1.261-1.071,2.194-1.4,2.8-1.01a1.259,1.259,0,0,1,.43,1.135c0,.69-.237,1.058-.709,1.1-.33.022-.494-.093-.494-.346a.229.229,0,0,1,.019-.1,2.394,2.394,0,0,0,.205-.946c0-.164-.019-.244-.055-.237q-1.121.2-3.6,3.435t-2.5,4.455c0,.285.132.427.382.427q.986,0,3.073-2.527,1.448-1.751,1.584-1.944a3.685,3.685,0,0,0,.731-1.629.494.494,0,0,1,.539-.507c.459,0,.638.221.552.664a28.8,28.8,0,0,0-.552,3.515c0,.767.17,1.19.5,1.283a.518.518,0,0,0,.385-.067.366.366,0,0,0,.189-.2.543.543,0,0,1,.564-.484c.18,0,.269.1.269.292a.907.907,0,0,1-.071.3A1.263,1.263,0,0,1,87,46.175,1.336,1.336,0,0,1,86.493,46.072Z" transform="translate(45.87 -32.768)" fill="#3e6f55"/>
        <path id="Path_36" data-name="Path 36" d="M91.337,39.221a1.03,1.03,0,0,1-.638-.4,1.09,1.09,0,0,0-.763-.4q-1.381,0-2.823,2.547a7.98,7.98,0,0,0-1.267,3.531c0,.943.395,1.414,1.19,1.414a4.157,4.157,0,0,0,2.335-.773,6.5,6.5,0,0,0,1.835-1.9.2.2,0,0,1,.176-.122.341.341,0,0,1,.26.18.376.376,0,0,1,.093.292,5.548,5.548,0,0,1-1.261,1.507,10.694,10.694,0,0,1-1.3,1.167,4.543,4.543,0,0,1-1.4.606c-.019,0-.119.01-.289.029s-.269.029-.282.029a2.023,2.023,0,0,1-1.764-.844,2.926,2.926,0,0,1-.5-1.742,8.053,8.053,0,0,1,1.485-4.025q1.713-2.728,3.621-2.739a2.585,2.585,0,0,1,.953.282c.548.237.834.529.856.872a.36.36,0,0,1-.173.359A.618.618,0,0,1,91.337,39.221Z" transform="translate(58.282 -32.649)" fill="#3e6f55"/>
        <path id="Path_37" data-name="Path 37" d="M90.092,46.78a1.714,1.714,0,0,1-1.565-.664,2.662,2.662,0,0,1-.539-1.7,9.926,9.926,0,0,1,.828-3.746c.552-1.344,1.065-2.014,1.546-2.014.433,0,.654.18.654.545a1.623,1.623,0,0,1-.375.654,7.39,7.39,0,0,0-1.774,4.372c0,1.167.292,1.754.876,1.754q1.323,0,2.6-2.418A7.739,7.739,0,0,0,93.45,40.2q0-1.833-.908-1.831a2.253,2.253,0,0,0-1.485.741l-.167-.1a.283.283,0,0,1-.157-.269c0-.253.269-.513.808-.773a2.582,2.582,0,0,1,1-.327q1.819,0,1.886,2.81a7.539,7.539,0,0,1-1.2,3.583Q91.787,46.632,90.092,46.78Z" transform="translate(65.008 -32.494)" fill="#3e6f55"/>
        <path id="Path_38" data-name="Path 38" d="M103.817,45.489c-.642,0-1.171-.465-1.584-1.4a5.049,5.049,0,0,1-.481-1.989V41.008a11.7,11.7,0,0,0-.022-1.328c-.035-.433-.109-.651-.221-.651a6.3,6.3,0,0,0-.571.853q-1.828,2.858-1.973,3.057-1.525,2.117-2.383,2.114c-.574,0-.892-.625-.943-1.876-.013-.346.016-1.437.1-3.272.016-.411-.019-.616-.1-.616q-.361,0-1.886,2.774a13.038,13.038,0,0,0-1.665,3.855c-.022.276-.2.414-.516.414-.151,0-.285-.237-.407-.718a4.289,4.289,0,0,1-.122-.821q0-2.054.1-3.538a11.887,11.887,0,0,1,.346-2.329c.176-.686.382-1.033.613-1.033a.681.681,0,0,1,.452.18c.138.122.189.237.16.35a18.858,18.858,0,0,0-.683,4.92q1.208-2.179,1.681-2.909,1.366-2.1,2.143-2.1.929,0,.882,2.213c-.006.157-.026.513-.055,1.068-.032.507-.045.911-.045,1.212a3.926,3.926,0,0,0,.17,1.315c.269-.08.731-.568,1.4-1.463q.818-1.121,1.392-2.088,1.477-2.56,2.152-2.563c.446,0,.731.433.85,1.293q.058.794.17,2.45c.135,2,.488,3.009,1.055,3.021a.689.689,0,0,0,.581-.33c.167-.228.3-.343.411-.343.208,0,.311.115.311.337a.925.925,0,0,1-.558.786A1.573,1.573,0,0,1,103.817,45.489Z" transform="translate(71.749 -31.938)" fill="#3e6f55"/>
        <path id="Path_39" data-name="Path 39" d="M106.438,38.406h-.022q-.674-.048-2.037,2.832c-.548,1.3-1.107,2.6-1.658,3.91q-.611,1.4-.9,1.4-.37,0-.786-1.261-.245-.808-.911-2.675c-.215-.539-.568-1.261-1.046-2.165-.247-.468-.494-.93-.741-1.4a.512.512,0,0,1-.045-.2.458.458,0,0,1,.237-.385.69.69,0,0,1,.369-.122q.438,0,1.459,2.438c.038.087.462,1.18,1.273,3.3a4,4,0,0,1,.3.908l.395-1.014q1.155-2.954,1.559-3.743c.866-1.668,1.706-2.5,2.531-2.5.334,0,.494.138.494.414,0,.131-.093.218-.279.263A.486.486,0,0,1,106.438,38.406Z" transform="translate(87.751 -32.302)" fill="#3e6f55"/>
        <path id="Path_40" data-name="Path 40" d="M103.336,46.78a1.717,1.717,0,0,1-1.565-.664,2.662,2.662,0,0,1-.539-1.7,9.927,9.927,0,0,1,.827-3.746c.552-1.344,1.065-2.014,1.549-2.014.43,0,.651.18.651.545a1.642,1.642,0,0,1-.372.654,7.376,7.376,0,0,0-1.777,4.372c0,1.167.3,1.754.876,1.754.885,0,1.748-.805,2.6-2.418a7.738,7.738,0,0,0,1.11-3.358q0-1.833-.908-1.831a2.253,2.253,0,0,0-1.485.741l-.167-.1a.283.283,0,0,1-.157-.269c0-.253.269-.513.808-.773a2.582,2.582,0,0,1,1-.327c1.212,0,1.844.937,1.886,2.81a7.538,7.538,0,0,1-1.2,3.583Q105.031,46.632,103.336,46.78Z" transform="translate(94.243 -32.494)" fill="#3e6f55"/>
        <path id="Path_41" data-name="Path 41" d="M110.486,39.221a1.019,1.019,0,0,1-.641-.4,1.085,1.085,0,0,0-.767-.4c-.921,0-1.863.847-2.819,2.547a8.036,8.036,0,0,0-1.27,3.531q0,1.414,1.193,1.414a4.182,4.182,0,0,0,2.338-.773,6.486,6.486,0,0,0,1.828-1.9.209.209,0,0,1,.183-.122.341.341,0,0,1,.257.18.371.371,0,0,1,.09.292,5.378,5.378,0,0,1-1.257,1.507,10.1,10.1,0,0,1-1.305,1.167,4.537,4.537,0,0,1-1.392.606c-.022,0-.122.01-.292.029s-.266.029-.282.029a2.019,2.019,0,0,1-1.764-.844,2.925,2.925,0,0,1-.494-1.742,8.023,8.023,0,0,1,1.485-4.025q1.7-2.728,3.618-2.739a2.585,2.585,0,0,1,.953.282c.545.237.834.529.853.872a.355.355,0,0,1-.173.359A.618.618,0,0,1,110.486,39.221Z" transform="translate(100.552 -32.649)" fill="#3e6f55"/>
        <path id="Path_42" data-name="Path 42" d="M108.7,42.652a2.556,2.556,0,0,0-.433,1.091,6.591,6.591,0,0,0-.231,1.584c0,.584.385.879,1.161.879a4.326,4.326,0,0,0,2.6-1.293,7.279,7.279,0,0,0,2.011-2.6h.359c.141.135.192.263.148.382a6.874,6.874,0,0,1-2.181,3.137,4.562,4.562,0,0,1-2.912,1.2,1.9,1.9,0,0,1-1.629-.744,2.8,2.8,0,0,1-.471-1.908,8.811,8.811,0,0,1,1.8-4.179q1.823-2.675,3.336-2.675a.849.849,0,0,1,.773.471,1.407,1.407,0,0,1,.2.731,4.8,4.8,0,0,1-.93,2.527,3.084,3.084,0,0,1-2.531,1.719,1.592,1.592,0,0,1-1.033-.292Zm3.429-4.336a1.475,1.475,0,0,0-.779.516q-2.333,2.742-2.335,3.191c0,.083.173.135.516.157.587.032,1.222-.388,1.912-1.261a3.82,3.82,0,0,0,1.01-2.268C112.455,38.37,112.346,38.255,112.131,38.316Z" transform="translate(107.239 -32.741)" fill="#3e6f55"/>
      </g>
    </g>
    <g id="Group_15" data-name="Group 15" transform="translate(219.873 84.913)">
      <path id="Path_43" data-name="Path 43" d="M76.906,41.834a1.912,1.912,0,0,1,1-1.453.291.291,0,0,1,.314-.032.231.231,0,0,1,.157.225.962.962,0,0,1-.269.471,2.635,2.635,0,0,0-.35.5c-.08.221.035.555.35.985a2.256,2.256,0,0,1,.542,1.148,1.093,1.093,0,0,1-.093.43,1.483,1.483,0,0,1-.382.526c-.074.067-.25.2-.529.407a2.07,2.07,0,0,1-.516.311c-.173,0-.257-.077-.257-.234a.59.59,0,0,1,.2-.35c.109-.1.212-.2.318-.292a1.186,1.186,0,0,0,.337-.754,1.278,1.278,0,0,0-.225-.641c-.151-.237-.3-.468-.436-.7A1.041,1.041,0,0,1,76.906,41.834Z" transform="translate(-76.874 -40.317)" fill="#3e6f55"/>
    </g>
    <g id="Group_16" data-name="Group 16" transform="translate(320.297 71.429)">
      <path id="Path_44" data-name="Path 44" d="M113.489,39.551c.119.019.18.055.18.109,0,.115-.106.176-.318.176a2.2,2.2,0,0,1-1.607-1.058c-.173-.221-.5-.751-.994-1.578l-.25-.427c.019,0-.045.125-.192.382-.516.892-.783,1.357-.808,1.392-.433.683-.747,1.026-.93,1.026a.587.587,0,0,1-.237-.051c-.1-.042-.148-.1-.148-.16a.13.13,0,0,1,.026-.087c.157-.2.314-.391.475-.587a9.336,9.336,0,0,0,.664-.917c.282-.523.475-.9.577-1.126.176-.353.343-.532.5-.532.125,0,.314.2.574.59.353.552.7,1.1,1.062,1.652.574.811,1.007,1.209,1.289,1.2h.019A.368.368,0,0,1,113.489,39.551Z" transform="translate(-108.184 -36.113)" fill="#3e6f55"/>
    </g>
  </g>
</svg>
